<svg width="84" height="84" viewBox="0 0 84 84" fill="none" xmlns="http://www.w3.org/2000/svg">
<path d="M80.6948 25.7509C82.8767 30.9576 83.9818 36.492 83.9537 42.1951C83.9256 47.8702 82.8018 53.3671 80.5918 58.5363L80.5918 58.5363C78.466 63.5276 75.4226 68.0038 71.555 71.8339L71.555 71.8339C67.719 75.6461 63.1768 78.6742 58.1826 80.7489C53.0602 82.8746 47.6194 83.9609 42.0099 83.9609H41.8133C35.3098 83.9292 28.9023 82.3906 23.0935 79.4659L23.0835 79.4609H23.0724H8.81303C7.68172 79.4609 6.59674 79.0115 5.79678 78.2116C4.99682 77.4116 4.54741 76.3266 4.54741 75.1953V60.9453V60.9342L4.5424 60.9242C1.61777 55.1154 0.0791826 48.7079 0.0474063 42.2045L0.000531869 42.2047L0.0474063 42.2045C0.0193121 36.5294 1.1056 31.0137 3.25945 25.8258L3.21616 25.8078L3.25945 25.8258C5.33834 20.8158 8.34429 16.3209 12.1745 12.4533L12.1745 12.4533C15.979 8.60717 20.4954 5.53792 25.472 3.41656L25.4721 3.41654C30.6412 1.20656 36.1381 0.0827969 41.8131 0.0546875H42.0005C47.6381 0.0546875 53.1069 1.15034 58.2574 3.31353L58.2574 3.31356C63.2771 5.41338 67.8362 8.47718 71.6767 12.3315L71.7099 12.2984L71.6767 12.3315C75.5443 16.2085 78.5784 20.7222 80.6948 25.7509ZM80.6948 25.7509L80.738 25.7328L80.6948 25.751C80.6948 25.751 80.6948 25.751 80.6948 25.7509ZM66.6054 66.8286L66.575 66.7979L66.6054 66.8286C73.2143 60.2761 76.8848 51.5173 76.9412 42.1675C76.9599 37.4174 76.0493 32.8174 74.2281 28.4803C72.4726 24.2934 69.9379 20.5289 66.718 17.309C63.4888 14.0798 59.7337 11.5545 55.5468 9.79897C51.2566 7.99653 46.7036 7.08594 42.0099 7.08594L41.8505 7.08594L41.8503 7.08594C32.4911 7.12349 23.7323 10.7847 17.1797 17.403C10.6178 24.0212 7.04111 32.8082 7.07866 42.1674C7.10682 47.8281 8.51492 53.4512 11.1623 58.4174L11.1623 58.4174L11.5787 59.1946V72.3828V72.4297H11.6255H24.8138L25.5909 72.846L25.591 72.8461C30.5572 75.4934 36.1803 76.9015 41.8409 76.9297H41.8412H42.0005C51.2941 76.9297 60.0247 73.3436 66.6054 66.8286ZM38.8517 45.1566C38.0166 44.3215 37.5474 43.1889 37.5474 42.0078C37.5474 40.8268 38.0166 39.6941 38.8517 38.859C39.6868 38.0239 40.8195 37.5547 42.0005 37.5547C43.1816 37.5547 44.3142 38.0239 45.1494 38.859C45.9845 39.6941 46.4537 40.8268 46.4537 42.0078C46.4537 43.1889 45.9845 44.3215 45.1494 45.1566C44.3142 45.9918 43.1816 46.4609 42.0005 46.4609C40.8195 46.4609 39.6868 45.9918 38.8517 45.1566ZM57.6017 45.1566C56.7666 44.3215 56.2974 43.1889 56.2974 42.0078C56.2974 40.8268 56.7666 39.6941 57.6017 38.859C58.4368 38.0239 59.5695 37.5547 60.7505 37.5547C61.9316 37.5547 63.0642 38.0239 63.8994 38.859C64.7345 39.6941 65.2037 40.8268 65.2037 42.0078C65.2037 43.1889 64.7345 44.3215 63.8994 45.1566C63.0642 45.9918 61.9316 46.4609 60.7505 46.4609C59.5695 46.4609 58.4368 45.9918 57.6017 45.1566ZM20.1017 45.1566C19.2666 44.3215 18.7974 43.1889 18.7974 42.0078C18.7974 40.8268 19.2666 39.6941 20.1017 38.859C20.9368 38.0239 22.0695 37.5547 23.2505 37.5547C24.4316 37.5547 25.5642 38.0239 26.3994 38.859C27.2345 39.6941 27.7037 40.8268 27.7037 42.0078C27.7037 43.1889 27.2345 44.3215 26.3994 45.1566C25.5642 45.9918 24.4316 46.4609 23.2505 46.4609C22.0695 46.4609 20.9368 45.9918 20.1017 45.1566Z" fill="url(#paint0_linear_1011_11961)" stroke="url(#paint1_linear_1011_11961)" stroke-width="0.09375"/>
<defs>
<linearGradient id="paint0_linear_1011_11961" x1="42.0005" y1="0.0078125" x2="42.0005" y2="84.0078" gradientUnits="userSpaceOnUse">
<stop stop-color="#0A7CFF"/>
<stop offset="1" stop-color="#252525"/>
</linearGradient>
<linearGradient id="paint1_linear_1011_11961" x1="42.0005" y1="0.0078125" x2="42.0005" y2="84.0078" gradientUnits="userSpaceOnUse">
<stop stop-color="#0A7CFF"/>
<stop offset="1" stop-color="#252525"/>
</linearGradient>
</defs>
</svg>
