<svg width="72" height="80" viewBox="0 0 72 80" fill="none" xmlns="http://www.w3.org/2000/svg">
<mask id="path-1-inside-1_1011_11953" fill="white">
<path d="M64 72H8V28H64M52 0V8H20V0H12V8H8C3.56 8 0 11.56 0 16V72C0 74.1217 0.842854 76.1566 2.34315 77.6569C3.84344 79.1571 5.87827 80 8 80H64C66.1217 80 68.1566 79.1571 69.6569 77.6569C71.1571 76.1566 72 74.1217 72 72V16C72 13.8783 71.1571 11.8434 69.6569 10.3431C68.1566 8.84285 66.1217 8 64 8H60V0M56 44H36V64H56V44Z"/>
</mask>
<path d="M64 72H8V28H64M52 0V8H20V0H12V8H8C3.56 8 0 11.56 0 16V72C0 74.1217 0.842854 76.1566 2.34315 77.6569C3.84344 79.1571 5.87827 80 8 80H64C66.1217 80 68.1566 79.1571 69.6569 77.6569C71.1571 76.1566 72 74.1217 72 72V16C72 13.8783 71.1571 11.8434 69.6569 10.3431C68.1566 8.84285 66.1217 8 64 8H60V0M56 44H36V64H56V44Z" fill="url(#paint0_linear_1011_11953)"/>
<path d="M8 72H4V76H8V72ZM8 28V24H4V28H8ZM52 8V12H56V8H52ZM20 8H16V12H20V8ZM20 0H24V-4H20V0ZM12 0V-4H8V0H12ZM12 8V12H16V8H12ZM0 72H-4H0ZM64 8V4V8ZM60 8H56V12H60V8ZM56 44H60V40H56V44ZM36 44V40H32V44H36ZM36 64H32V68H36V64ZM56 64V68H60V64H56ZM64 68H8V76H64V68ZM12 72V28H4V72H12ZM8 32H64V24H8V32ZM48 0V8H56V0H48ZM52 4H20V12H52V4ZM24 8V0H16V8H24ZM20 -4H12V4H20V-4ZM8 0V8H16V0H8ZM12 4H8V12H12V4ZM8 4C1.35086 4 -4 9.35086 -4 16H4C4 13.7691 5.76914 12 8 12V4ZM-4 16V72H4V16H-4ZM-4 72C-4 75.1826 -2.73572 78.2348 -0.485282 80.4853L5.17157 74.8284C4.42143 74.0783 4 73.0609 4 72H-4ZM-0.485282 80.4853C1.76515 82.7357 4.8174 84 8 84V76C6.93914 76 5.92172 75.5786 5.17157 74.8284L-0.485282 80.4853ZM8 84H64V76H8V84ZM64 84C67.1826 84 70.2348 82.7357 72.4853 80.4853L66.8284 74.8284C66.0783 75.5786 65.0609 76 64 76V84ZM72.4853 80.4853C74.7357 78.2348 76 75.1826 76 72H68C68 73.0609 67.5786 74.0783 66.8284 74.8284L72.4853 80.4853ZM76 72V16H68V72H76ZM76 16C76 12.8174 74.7357 9.76515 72.4853 7.51472L66.8284 13.1716C67.5786 13.9217 68 14.9391 68 16H76ZM72.4853 7.51472C70.2348 5.26428 67.1826 4 64 4V12C65.0609 12 66.0783 12.4214 66.8284 13.1716L72.4853 7.51472ZM64 4H60V12H64V4ZM64 8V0H56V8H64ZM56 40H36V48H56V40ZM32 44V64H40V44H32ZM36 68H56V60H36V68ZM60 64V44H52V64H60Z" fill="url(#paint1_linear_1011_11953)" mask="url(#path-1-inside-1_1011_11953)"/>
<defs>
<linearGradient id="paint0_linear_1011_11953" x1="36" y1="0" x2="36" y2="80" gradientUnits="userSpaceOnUse">
<stop stop-color="#0A7CFF"/>
<stop offset="1" stop-color="#252525"/>
</linearGradient>
<linearGradient id="paint1_linear_1011_11953" x1="36" y1="0" x2="36" y2="80" gradientUnits="userSpaceOnUse">
<stop stop-color="#0A7CFF"/>
<stop offset="1" stop-color="#252525"/>
</linearGradient>
</defs>
</svg>
