<svg width="40" height="72" viewBox="0 0 40 72" fill="none" xmlns="http://www.w3.org/2000/svg">
<mask id="path-1-inside-1_1011_11967" fill="white">
<path d="M0 48.0078H8C8 52.3278 13.48 56.0078 20 56.0078C26.52 56.0078 32 52.3278 32 48.0078C32 43.6078 27.84 42.0078 19.04 39.8878C10.56 37.7678 0 35.1278 0 24.0078C0 16.8478 5.88 10.7678 14 8.72781V0.0078125H26V8.72781C34.12 10.7678 40 16.8478 40 24.0078H32C32 19.6878 26.52 16.0078 20 16.0078C13.48 16.0078 8 19.6878 8 24.0078C8 28.4078 12.16 30.0078 20.96 32.1278C29.44 34.2478 40 36.8878 40 48.0078C40 55.1678 34.12 61.2478 26 63.2878V72.0078H14V63.2878C5.88 61.2478 0 55.1678 0 48.0078Z"/>
</mask>
<path d="M0 48.0078H8C8 52.3278 13.48 56.0078 20 56.0078C26.52 56.0078 32 52.3278 32 48.0078C32 43.6078 27.84 42.0078 19.04 39.8878C10.56 37.7678 0 35.1278 0 24.0078C0 16.8478 5.88 10.7678 14 8.72781V0.0078125H26V8.72781C34.12 10.7678 40 16.8478 40 24.0078H32C32 19.6878 26.52 16.0078 20 16.0078C13.48 16.0078 8 19.6878 8 24.0078C8 28.4078 12.16 30.0078 20.96 32.1278C29.44 34.2478 40 36.8878 40 48.0078C40 55.1678 34.12 61.2478 26 63.2878V72.0078H14V63.2878C5.88 61.2478 0 55.1678 0 48.0078Z" fill="url(#paint0_linear_1011_11967)" stroke="url(#paint1_linear_1011_11967)" stroke-width="0.1875" mask="url(#path-1-inside-1_1011_11967)"/>
<defs>
<linearGradient id="paint0_linear_1011_11967" x1="20" y1="0.0078125" x2="20" y2="72.0078" gradientUnits="userSpaceOnUse">
<stop stop-color="#0A7CFF"/>
<stop offset="1" stop-color="#252525"/>
</linearGradient>
<linearGradient id="paint1_linear_1011_11967" x1="20" y1="0.0078125" x2="20" y2="72.0078" gradientUnits="userSpaceOnUse">
<stop stop-color="#0A7CFF"/>
<stop offset="1" stop-color="#252525"/>
</linearGradient>
</defs>
</svg>
