<svg width="40" height="72" viewBox="0 0 40 72" fill="none" xmlns="http://www.w3.org/2000/svg">
<path d="M14.0469 0.0546875V8.72781V8.76437L14.0114 8.77327C5.90519 10.8098 0.046875 16.8758 0.046875 24.0078C0.046875 29.5488 2.67599 32.975 6.36486 35.2831C10.0574 37.5934 14.8096 38.7819 19.0512 39.8423C19.0513 39.8423 19.0513 39.8423 19.0514 39.8423L19.04 39.8878C27.84 42.0078 32 43.6078 32 48.0078C32 52.3278 26.52 56.0078 20 56.0078C13.48 56.0078 8 52.3278 8 48.0078L14.0469 0.0546875ZM14.0469 0.0546875H25.9531V8.72781V8.76437L25.9886 8.77327C34.077 10.8054 39.9274 16.8492 39.953 23.9609H32.0467L14.0469 0.0546875ZM0.0469594 48.0547H7.95334L32 24.0078C32 19.6878 26.52 16.0078 20 16.0078C13.48 16.0078 8 19.6878 8 24.0078C8 28.4078 12.16 30.0078 20.96 32.1278L20.9486 32.1733C20.9487 32.1733 20.9487 32.1733 20.9488 32.1733C25.1904 33.2337 29.9426 34.4222 33.6351 36.7326C37.324 39.0406 39.9531 42.4668 39.9531 48.0078C39.9531 55.1398 34.0948 61.2058 25.9886 63.2423L25.9531 63.2513V63.2878V71.9609H14.0469V63.2878V63.2513L14.0114 63.2423C5.92296 61.2103 0.0725634 55.1664 0.0469594 48.0547Z" fill="url(#paint0_linear_1011_11967)" stroke="url(#paint1_linear_1011_11967)" stroke-width="0.09375"/>
<defs>
<linearGradient id="paint0_linear_1011_11967" x1="20" y1="0.0078125" x2="20" y2="72.0078" gradientUnits="userSpaceOnUse">
<stop stop-color="#0A7CFF"/>
<stop offset="1" stop-color="#252525"/>
</linearGradient>
<linearGradient id="paint1_linear_1011_11967" x1="20" y1="0.0078125" x2="20" y2="72.0078" gradientUnits="userSpaceOnUse">
<stop stop-color="#0A7CFF"/>
<stop offset="1" stop-color="#252525"/>
</linearGradient>
</defs>
</svg>
