<svg width="84" height="96" viewBox="0 0 84 96" fill="none" xmlns="http://www.w3.org/2000/svg">
<path d="M72.8898 44.5715H76.3184V41.143V11.9727C76.3184 9.30428 74.1525 7.13839 71.4841 7.13839H12.5196C9.85115 7.13839 7.68527 9.30428 7.68527 11.9727V41.143V44.5715H11.1138H72.8898ZM79.747 70.7727H79.7401V74.2012C79.7401 78.0831 77.0643 81.3457 73.4444 82.2337L70.8327 82.8744V85.5635V89.0813C70.8327 89.9906 70.4715 90.8626 69.8285 91.5056C69.1855 92.1486 68.3134 92.5098 67.4041 92.5098C66.4948 92.5098 65.6227 92.1486 64.9798 91.5056C64.3368 90.8626 63.9756 89.9906 63.9756 89.0813V85.8927V82.4641H60.547H23.4498H20.0213V85.8927V89.0813C20.0213 89.9906 19.66 90.8626 19.0171 91.5056C18.3741 92.1486 17.502 92.5098 16.5927 92.5098C15.6834 92.5098 14.8113 92.1486 14.1683 91.5056C13.5254 90.8626 13.1641 89.9906 13.1641 89.0813V85.5635V82.8753L10.5535 82.234C8.75585 81.7923 7.15834 80.7604 6.0167 79.3032C4.87507 77.8461 4.25533 76.048 4.2567 74.1969V74.1944V11.9727C4.2567 7.40811 7.95922 3.70982 12.5196 3.70982H71.4841C76.05 3.70982 79.747 7.4068 79.747 11.9727V70.7727ZM21.427 72.0001C24.1549 72.0001 26.7711 70.9164 28.7001 68.9875C30.629 67.0585 31.7127 64.4423 31.7127 61.7144C31.7127 58.9864 30.629 56.3702 28.7001 54.4413C26.7711 52.5123 24.1549 51.4287 21.427 51.4287C18.699 51.4287 16.0828 52.5123 14.1539 54.4413C12.2249 56.3702 11.1413 58.9865 11.1413 61.7144C11.1413 64.4423 12.2249 67.0585 14.1539 68.9875C16.0828 70.9164 18.699 72.0001 21.427 72.0001ZM62.5698 72.0001C65.2978 72.0001 67.914 70.9164 69.8429 68.9875C71.7719 67.0585 72.8556 64.4423 72.8556 61.7144C72.8556 58.9864 71.7719 56.3702 69.8429 54.4413C67.914 52.5123 65.2978 51.4287 62.5698 51.4287C59.8419 51.4287 57.2257 52.5123 55.2967 54.4413C53.3678 56.3702 52.2841 58.9864 52.2841 61.7144C52.2841 64.4423 53.3678 67.0585 55.2967 68.9875C57.2257 70.9164 59.8419 72.0001 62.5698 72.0001Z" fill="url(#paint0_linear_1011_11935)" stroke="url(#paint1_linear_1011_11935)" stroke-width="6.85714"/>
<defs>
<linearGradient id="paint0_linear_1011_11935" x1="42.0018" y1="0.28125" x2="42.0018" y2="95.9384" gradientUnits="userSpaceOnUse">
<stop stop-color="#0A7CFF"/>
<stop offset="1" stop-color="#252525"/>
</linearGradient>
<linearGradient id="paint1_linear_1011_11935" x1="42.0018" y1="0.28125" x2="42.0018" y2="95.9384" gradientUnits="userSpaceOnUse">
<stop stop-color="#0A7CFF"/>
<stop offset="1" stop-color="#252525"/>
</linearGradient>
</defs>
</svg>
