<svg width="78" height="92" viewBox="0 0 78 92" fill="none" xmlns="http://www.w3.org/2000/svg">
<path d="M58.4789 33.9672C58.4789 59.5512 20.0789 59.5512 20.0789 33.9672H29.6789C29.6789 46.7832 48.8789 46.7832 48.8789 33.9672M77.6789 77.1672V91.5672H0.878906V77.1672C0.878906 64.3512 26.4629 57.9672 39.2789 57.9672C52.0949 57.9672 77.6789 64.3512 77.6789 77.1672ZM68.5589 77.1672C68.5589 74.0952 53.5349 67.0872 39.2789 67.0872C25.0229 67.0872 9.99891 74.0952 9.99891 77.1672V82.4472H68.5589M41.6789 0.367188C43.0229 0.367188 44.0789 1.42319 44.0789 2.76719V17.1672H48.8789V5.16719C52.2759 6.7393 55.122 9.29611 57.0478 12.5058C58.9737 15.7156 59.8903 19.43 59.6789 23.1672C59.6789 23.1672 63.0389 23.8392 63.2789 29.1672H15.2789C15.2789 23.8392 18.8789 23.1672 18.8789 23.1672C18.6675 19.43 19.5842 15.7156 21.51 12.5058C23.4358 9.29611 26.2819 6.7393 29.6789 5.16719V17.1672H34.4789V2.76719C34.4789 1.42319 35.5349 0.367188 36.8789 0.367188" fill="url(#paint0_linear_1011_11926)"/>
<defs>
<linearGradient id="paint0_linear_1011_11926" x1="39.2789" y1="0.367187" x2="39.2789" y2="91.5672" gradientUnits="userSpaceOnUse">
<stop stop-color="#0A7CFF"/>
<stop offset="1" stop-color="#252525"/>
</linearGradient>
</defs>
</svg>
