<svg width="25" height="25" viewBox="0 0 25 25" fill="none" xmlns="http://www.w3.org/2000/svg">
<g clip-path="url(#clip0_1011_12428)">
<path d="M18.875 16.1016C19.6706 16.1016 20.4337 16.4176 20.9963 16.9802C21.5589 17.5429 21.875 18.3059 21.875 19.1016C21.875 19.8972 21.5589 20.6603 20.9963 21.2229C20.4337 21.7855 19.6706 22.1016 18.875 22.1016C18.0794 22.1016 17.3163 21.7855 16.7537 21.2229C16.1911 20.6603 15.875 19.8972 15.875 19.1016C15.875 18.3059 16.1911 17.5429 16.7537 16.9802C17.3163 16.4176 18.0794 16.1016 18.875 16.1016ZM16.375 4.10156C17.5685 4.10156 18.7131 4.57567 19.557 5.41958C20.4009 6.2635 20.875 7.40809 20.875 8.60156C20.875 9.79504 20.4009 10.9396 19.557 11.7835C18.7131 12.6275 17.5685 13.1016 16.375 13.1016H9.375C8.71196 13.1016 8.07607 13.365 7.60723 13.8338C7.13839 14.3026 6.875 14.9385 6.875 15.6016C6.875 16.2646 7.13839 16.9005 7.60723 17.3693C8.07607 17.8382 8.71196 18.1016 9.375 18.1016H13.875C14.1402 18.1016 14.3946 18.2069 14.5821 18.3945C14.7696 18.582 14.875 18.8363 14.875 19.1016C14.875 19.3668 14.7696 19.6211 14.5821 19.8087C14.3946 19.9962 14.1402 20.1016 13.875 20.1016H9.375C8.18153 20.1016 7.03693 19.6275 6.19302 18.7835C5.34911 17.9396 4.875 16.795 4.875 15.6016C4.875 14.4081 5.34911 13.2635 6.19302 12.4196C7.03693 11.5757 8.18153 11.1016 9.375 11.1016H16.375C17.038 11.1016 17.6739 10.8382 18.1428 10.3693C18.6116 9.90049 18.875 9.2646 18.875 8.60156C18.875 7.93852 18.6116 7.30264 18.1428 6.8338C17.6739 6.36495 17.038 6.10156 16.375 6.10156H11.875C11.6098 6.10156 11.3554 5.99621 11.1679 5.80867C10.9804 5.62113 10.875 5.36678 10.875 5.10156C10.875 4.83635 10.9804 4.58199 11.1679 4.39446C11.3554 4.20692 11.6098 4.10156 11.875 4.10156H16.375ZM6.875 2.10156C7.67065 2.10156 8.43371 2.41763 8.99632 2.98024C9.55893 3.54285 9.875 4.30591 9.875 5.10156C9.875 5.89721 9.55893 6.66027 8.99632 7.22288C8.43371 7.78549 7.67065 8.10156 6.875 8.10156C6.07935 8.10156 5.31629 7.78549 4.75368 7.22288C4.19107 6.66027 3.875 5.89721 3.875 5.10156C3.875 4.30591 4.19107 3.54285 4.75368 2.98024C5.31629 2.41763 6.07935 2.10156 6.875 2.10156Z" fill="white"/>
</g>
<defs>
<clipPath id="clip0_1011_12428">
<rect width="24" height="24" fill="white" transform="translate(0.875 0.101562)"/>
</clipPath>
</defs>
</svg>
