<svg width="25" height="24" viewBox="0 0 25 24" fill="none" xmlns="http://www.w3.org/2000/svg">
<g clip-path="url(#clip0_1011_12441)">
<path d="M9.58871 21.3026H15.3701C20.1879 21.3026 22.1151 19.3754 22.1151 14.5576V8.77621C22.1151 3.95838 20.1879 2.03125 15.3701 2.03125H9.58871C4.77088 2.03125 2.84375 3.95838 2.84375 8.77621V14.5576C2.84375 19.3754 4.77088 21.3026 9.58871 21.3026Z" stroke="white" stroke-width="1.44535" stroke-linecap="round" stroke-linejoin="round"/>
<path d="M15.8518 17.9248C16.9117 17.9248 17.7789 17.0576 17.7789 15.9977V7.32557C17.7789 6.26565 16.9117 5.39844 15.8518 5.39844C14.7919 5.39844 13.9246 6.26565 13.9246 7.32557V15.9977C13.9246 16.5087 14.1277 16.9989 14.4891 17.3603C14.8505 17.7218 15.3407 17.9248 15.8518 17.9248ZM9.10682 17.9248C10.1667 17.9248 11.034 17.0576 11.034 15.9977V12.6252C11.034 11.5653 10.1667 10.698 9.10682 10.698C8.0469 10.698 7.17969 11.5653 7.17969 12.6252V15.9977C7.17969 16.5087 7.38272 16.9989 7.74413 17.3603C8.10554 17.7218 8.59572 17.9248 9.10682 17.9248Z" stroke="white" stroke-width="1.44535" stroke-linecap="round" stroke-linejoin="round"/>
</g>
<defs>
<clipPath id="clip0_1011_12441">
<rect width="23.1256" height="23.1256" fill="white" transform="translate(0.917969 0.101562)"/>
</clipPath>
</defs>
</svg>
