<svg width="25" height="25" viewBox="0 0 25 25" fill="none" xmlns="http://www.w3.org/2000/svg">
<g clip-path="url(#clip0_1011_12411)">
<g clip-path="url(#clip1_1011_12411)">
<g clip-path="url(#clip2_1011_12411)">
<path d="M22.9316 12.1473C22.9316 15.4696 20.2316 18.1696 16.9093 18.1696C15.4251 18.1729 13.9933 17.6217 12.8945 16.6238C14.1291 15.5298 14.9019 13.9239 14.9019 12.1473C14.9019 10.3708 14.1291 8.76478 12.8945 7.67073C13.9933 6.67294 15.4251 6.12165 16.9093 6.12502C20.2316 6.12502 22.9316 8.825 22.9316 12.1473Z" stroke="white" stroke-width="1.44535" stroke-linecap="round" stroke-linejoin="round"/>
<path d="M14.904 12.1473C14.904 13.9239 14.1311 15.5298 12.8966 16.6238C11.7978 17.6217 10.3659 18.1729 8.88166 18.1696C5.55936 18.1696 2.85938 15.4696 2.85938 12.1473C2.85938 8.82499 5.55936 6.125 8.88166 6.125C10.4274 6.125 11.8326 6.70716 12.8966 7.67072C14.1311 8.76477 14.904 10.3708 14.904 12.1473Z" stroke="white" stroke-width="1.44535" stroke-linecap="round" stroke-linejoin="round"/>
</g>
<path d="M8.19141 14.6469L10.5803 11.5455C10.9215 11.1039 11.5539 11.0235 11.9955 11.3648L13.8323 12.8101C14.2739 13.1514 14.9063 13.0711 15.2475 12.6395L17.5661 9.64844" stroke="white" stroke-width="1.44535" stroke-linecap="round" stroke-linejoin="round"/>
</g>
</g>
<defs>
<clipPath id="clip0_1011_12411">
<rect width="24.0891" height="24.0891" fill="white" transform="translate(0.835938 0.101562)"/>
</clipPath>
<clipPath id="clip1_1011_12411">
<rect width="24.0891" height="24.0891" fill="white" transform="translate(0.835938 0.101562)"/>
</clipPath>
<clipPath id="clip2_1011_12411">
<rect width="24.0891" height="24.0891" fill="white" transform="translate(0.878906 0.101562)"/>
</clipPath>
</defs>
</svg>
