<svg width="589" height="590" viewBox="0 0 589 590" fill="none" xmlns="http://www.w3.org/2000/svg">
<g clip-path="url(#clip0_1011_12350)">
<rect x="0.210938" y="0.789062" width="588.789" height="588.789" rx="21.807" fill="white" fill-opacity="0.04"/>
<rect x="-332.348" y="-30.8281" width="1254.11" height="1253.9" fill="url(#paint0_radial_1011_12350)"/>
<g filter="url(#filter0_d_1011_12350)">
<path d="M66 98.3226C66 83.7807 77.7886 71.9922 92.3305 71.9922H789.67C804.211 71.9922 816 83.7807 816 98.3227V491.662C816 506.204 804.211 517.992 789.67 517.992H92.3304C77.7885 517.992 66 506.204 66 491.662V98.3226Z" fill="white"/>
<path d="M92.3305 72.6504H789.67C803.848 72.6504 815.342 84.1443 815.342 98.3227V491.662C815.342 505.84 803.848 517.334 789.67 517.334H92.3304C78.1521 517.334 66.6583 505.84 66.6583 491.662V98.3226C66.6583 84.1443 78.1521 72.6504 92.3305 72.6504Z" stroke="#F8F9FA" stroke-width="1.31652"/>
</g>
<path d="M208.301 436.182H233.315" stroke="#0080DA" stroke-width="3.94957" stroke-linecap="round"/>
<circle cx="220.807" cy="436.182" r="5.92436" fill="#0095FF"/>
<path d="M246.8 443.18V427.86H248.656V441.534H255.777V443.18H246.8ZM261.791 443.449C261.063 443.449 260.402 443.312 259.809 443.038C259.215 442.758 258.744 442.357 258.395 441.833C258.046 441.305 257.871 440.666 257.871 439.918C257.871 439.26 258.001 438.726 258.26 438.318C258.519 437.904 258.866 437.579 259.3 437.345C259.734 437.111 260.212 436.936 260.736 436.821C261.265 436.702 261.796 436.607 262.329 436.537C263.028 436.447 263.594 436.38 264.027 436.335C264.466 436.285 264.785 436.203 264.985 436.088C265.189 435.974 265.292 435.774 265.292 435.49V435.43C265.292 434.692 265.09 434.119 264.686 433.71C264.287 433.301 263.681 433.096 262.868 433.096C262.025 433.096 261.364 433.281 260.886 433.65C260.407 434.019 260.07 434.413 259.876 434.832L258.2 434.233C258.5 433.535 258.898 432.992 259.397 432.603C259.901 432.209 260.449 431.934 261.043 431.78C261.641 431.62 262.23 431.54 262.808 431.54C263.177 431.54 263.601 431.585 264.08 431.675C264.564 431.76 265.03 431.937 265.479 432.206C265.932 432.475 266.309 432.882 266.608 433.425C266.907 433.969 267.057 434.697 267.057 435.61V443.18H265.292V441.624H265.202C265.082 441.873 264.883 442.14 264.603 442.424C264.324 442.708 263.953 442.95 263.489 443.15C263.025 443.349 262.459 443.449 261.791 443.449ZM262.06 441.863C262.758 441.863 263.347 441.726 263.825 441.452C264.309 441.177 264.673 440.823 264.918 440.39C265.167 439.956 265.292 439.499 265.292 439.021V437.405C265.217 437.495 265.052 437.577 264.798 437.652C264.549 437.722 264.259 437.784 263.93 437.839C263.606 437.889 263.289 437.934 262.98 437.973C262.676 438.008 262.429 438.038 262.24 438.063C261.781 438.123 261.352 438.22 260.953 438.355C260.559 438.485 260.24 438.682 259.996 438.946C259.756 439.205 259.637 439.559 259.637 440.008C259.637 440.621 259.863 441.085 260.317 441.399C260.776 441.709 261.357 441.863 262.06 441.863ZM278.418 434.263L276.832 434.712C276.732 434.448 276.585 434.191 276.39 433.942C276.201 433.687 275.942 433.478 275.612 433.313C275.283 433.149 274.862 433.066 274.348 433.066C273.645 433.066 273.059 433.228 272.59 433.553C272.127 433.872 271.895 434.278 271.895 434.772C271.895 435.211 272.054 435.557 272.374 435.812C272.693 436.066 273.191 436.278 273.87 436.447L275.575 436.866C276.602 437.116 277.368 437.497 277.871 438.011C278.375 438.519 278.627 439.175 278.627 439.978C278.627 440.636 278.437 441.225 278.058 441.743C277.684 442.262 277.161 442.671 276.488 442.97C275.814 443.269 275.031 443.419 274.139 443.419C272.967 443.419 271.997 443.165 271.229 442.656C270.461 442.147 269.975 441.404 269.77 440.427L271.446 440.008C271.606 440.626 271.907 441.09 272.351 441.399C272.8 441.709 273.386 441.863 274.109 441.863C274.932 441.863 275.585 441.689 276.069 441.34C276.557 440.985 276.802 440.562 276.802 440.068C276.802 439.669 276.662 439.335 276.383 439.066C276.104 438.791 275.675 438.587 275.096 438.452L273.181 438.003C272.129 437.754 271.356 437.368 270.863 436.844C270.374 436.315 270.129 435.655 270.129 434.862C270.129 434.213 270.311 433.64 270.675 433.141C271.045 432.643 271.546 432.251 272.179 431.967C272.817 431.683 273.54 431.54 274.348 431.54C275.485 431.54 276.378 431.79 277.026 432.288C277.679 432.787 278.143 433.445 278.418 434.263ZM286.281 431.69V433.186H280.327V431.69H286.281ZM282.062 428.937H283.828V439.888C283.828 440.387 283.9 440.761 284.045 441.01C284.194 441.255 284.384 441.419 284.613 441.504C284.847 441.584 285.094 441.624 285.354 441.624C285.548 441.624 285.708 441.614 285.832 441.594C285.957 441.569 286.057 441.549 286.132 441.534L286.491 443.12C286.371 443.165 286.204 443.21 285.989 443.254C285.775 443.304 285.503 443.329 285.174 443.329C284.675 443.329 284.187 443.222 283.708 443.008C283.234 442.793 282.84 442.467 282.526 442.028C282.217 441.589 282.062 441.035 282.062 440.367V428.937ZM295.1 427.86H297.315L302.521 440.577H302.7L307.907 427.86H310.121V443.18H308.385V431.54H308.236L303.448 443.18H301.773L296.985 431.54H296.836V443.18H295.1V427.86ZM318.269 443.419C317.231 443.419 316.321 443.172 315.538 442.679C314.76 442.185 314.152 441.494 313.713 440.606C313.279 439.719 313.062 438.682 313.062 437.495C313.062 436.298 313.279 435.253 313.713 434.36C314.152 433.468 314.76 432.775 315.538 432.281C316.321 431.787 317.231 431.54 318.269 431.54C319.306 431.54 320.213 431.787 320.991 432.281C321.774 432.775 322.383 433.468 322.817 434.36C323.255 435.253 323.475 436.298 323.475 437.495C323.475 438.682 323.255 439.719 322.817 440.606C322.383 441.494 321.774 442.185 320.991 442.679C320.213 443.172 319.306 443.419 318.269 443.419ZM318.269 441.833C319.056 441.833 319.705 441.631 320.213 441.227C320.722 440.823 321.099 440.292 321.343 439.634C321.587 438.976 321.709 438.263 321.709 437.495C321.709 436.727 321.587 436.011 321.343 435.348C321.099 434.685 320.722 434.149 320.213 433.74C319.705 433.331 319.056 433.126 318.269 433.126C317.481 433.126 316.832 433.331 316.324 433.74C315.815 434.149 315.439 434.685 315.194 435.348C314.95 436.011 314.828 436.727 314.828 437.495C314.828 438.263 314.95 438.976 315.194 439.634C315.439 440.292 315.815 440.823 316.324 441.227C316.832 441.631 317.481 441.833 318.269 441.833ZM327.935 436.268V443.18H326.17V431.69H327.875V433.485H328.025C328.294 432.902 328.703 432.433 329.251 432.079C329.8 431.72 330.508 431.54 331.376 431.54C332.154 431.54 332.834 431.7 333.418 432.019C334.001 432.333 334.455 432.812 334.779 433.455C335.103 434.094 335.266 434.902 335.266 435.879V443.18H333.5V435.999C333.5 435.096 333.266 434.393 332.797 433.889C332.328 433.381 331.685 433.126 330.867 433.126C330.304 433.126 329.8 433.248 329.356 433.493C328.917 433.737 328.571 434.094 328.316 434.562C328.062 435.031 327.935 435.6 327.935 436.268ZM343.488 431.69V433.186H337.534V431.69H343.488ZM339.269 428.937H341.035V439.888C341.035 440.387 341.107 440.761 341.252 441.01C341.401 441.255 341.591 441.419 341.82 441.504C342.055 441.584 342.301 441.624 342.561 441.624C342.755 441.624 342.915 441.614 343.039 441.594C343.164 441.569 343.264 441.549 343.339 441.534L343.698 443.12C343.578 443.165 343.411 443.21 343.196 443.254C342.982 443.304 342.71 443.329 342.381 443.329C341.882 443.329 341.394 443.222 340.915 443.008C340.441 442.793 340.047 442.467 339.733 442.028C339.424 441.589 339.269 441.035 339.269 440.367V428.937ZM348.156 436.268V443.18H346.391V427.86H348.156V433.485H348.306C348.575 432.892 348.979 432.421 349.517 432.072C350.061 431.717 350.784 431.54 351.687 431.54C352.47 431.54 353.155 431.698 353.744 432.012C354.332 432.321 354.788 432.797 355.113 433.44C355.442 434.079 355.606 434.892 355.606 435.879V443.18H353.841V435.999C353.841 435.086 353.604 434.38 353.13 433.882C352.662 433.378 352.011 433.126 351.178 433.126C350.599 433.126 350.081 433.248 349.622 433.493C349.168 433.737 348.809 434.094 348.545 434.562C348.286 435.031 348.156 435.6 348.156 436.268Z" fill="#96A5B8"/>
<path d="M250.551 477.855V461.1H251.624V477.855H250.551ZM253.909 466.296C253.839 465.677 253.551 465.197 253.045 464.856C252.539 464.512 251.901 464.339 251.134 464.339C250.584 464.339 250.108 464.427 249.707 464.601C249.305 464.771 248.993 465.007 248.771 465.308C248.553 465.605 248.443 465.943 248.443 466.323C248.443 466.641 248.518 466.916 248.666 467.147C248.819 467.379 249.017 467.573 249.262 467.73C249.51 467.883 249.776 468.011 250.06 468.116C250.344 468.216 250.616 468.299 250.878 468.365L252.187 468.705C252.615 468.81 253.053 468.952 253.503 469.13C253.952 469.309 254.369 469.545 254.753 469.837C255.137 470.13 255.447 470.492 255.682 470.924C255.922 471.356 256.042 471.873 256.042 472.475C256.042 473.234 255.846 473.908 255.453 474.498C255.065 475.087 254.5 475.551 253.758 475.892C253.021 476.232 252.128 476.402 251.081 476.402C250.078 476.402 249.209 476.243 248.476 475.924C247.743 475.606 247.169 475.154 246.755 474.57C246.34 473.98 246.111 473.282 246.068 472.475H248.097C248.136 472.959 248.293 473.363 248.568 473.686C248.847 474.004 249.203 474.242 249.635 474.399C250.071 474.552 250.549 474.628 251.068 474.628C251.64 474.628 252.148 474.539 252.593 474.36C253.043 474.177 253.396 473.924 253.653 473.601C253.911 473.274 254.04 472.892 254.04 472.455C254.04 472.058 253.926 471.733 253.699 471.48C253.477 471.227 253.173 471.018 252.789 470.852C252.41 470.686 251.98 470.54 251.5 470.413L249.916 469.981C248.843 469.689 247.992 469.259 247.363 468.692C246.739 468.125 246.427 467.374 246.427 466.44C246.427 465.668 246.637 464.994 247.056 464.418C247.475 463.842 248.042 463.395 248.758 463.076C249.473 462.753 250.28 462.592 251.179 462.592C252.087 462.592 252.888 462.751 253.581 463.07C254.28 463.388 254.829 463.827 255.231 464.385C255.632 464.939 255.842 465.576 255.859 466.296H253.909ZM258.276 476.18V474.714L262.812 470.014C263.296 469.504 263.695 469.056 264.01 468.672C264.328 468.284 264.566 467.915 264.723 467.566C264.88 467.217 264.959 466.846 264.959 466.453C264.959 466.008 264.854 465.624 264.644 465.302C264.435 464.974 264.149 464.723 263.787 464.549C263.425 464.37 263.017 464.28 262.563 464.28C262.083 464.28 261.664 464.379 261.306 464.575C260.949 464.771 260.674 465.048 260.482 465.406C260.29 465.764 260.194 466.183 260.194 466.663H258.263C258.263 465.847 258.451 465.134 258.826 464.523C259.201 463.912 259.716 463.438 260.37 463.102C261.025 462.762 261.769 462.592 262.602 462.592C263.445 462.592 264.186 462.76 264.828 463.096C265.474 463.427 265.978 463.881 266.34 464.457C266.702 465.029 266.883 465.675 266.883 466.395C266.883 466.892 266.789 467.379 266.601 467.854C266.418 468.33 266.098 468.86 265.639 469.445C265.181 470.025 264.544 470.73 263.728 471.559L261.064 474.347V474.445H267.099V476.18H258.276ZM274.246 476.402C273.212 476.398 272.329 476.125 271.595 475.584C270.862 475.043 270.302 474.255 269.913 473.221C269.525 472.187 269.331 470.941 269.331 469.484C269.331 468.031 269.525 466.789 269.913 465.76C270.306 464.73 270.869 463.944 271.602 463.403C272.339 462.862 273.221 462.592 274.246 462.592C275.272 462.592 276.151 462.865 276.884 463.41C277.617 463.951 278.178 464.736 278.566 465.766C278.959 466.792 279.155 468.031 279.155 469.484C279.155 470.946 278.961 472.194 278.573 473.228C278.184 474.258 277.624 475.045 276.891 475.591C276.158 476.132 275.276 476.402 274.246 476.402ZM274.246 474.655C275.154 474.655 275.863 474.212 276.373 473.326C276.888 472.44 277.146 471.16 277.146 469.484C277.146 468.371 277.028 467.431 276.792 466.663C276.561 465.891 276.227 465.306 275.791 464.909C275.359 464.507 274.844 464.307 274.246 464.307C273.343 464.307 272.634 464.752 272.119 465.642C271.604 466.532 271.345 467.813 271.34 469.484C271.34 470.601 271.456 471.546 271.687 472.318C271.923 473.086 272.257 473.669 272.689 474.066C273.121 474.458 273.64 474.655 274.246 474.655ZM283.563 474.347L283.465 475.06C283.4 475.584 283.289 476.13 283.131 476.697C282.979 477.268 282.819 477.799 282.654 478.287C282.492 478.776 282.359 479.164 282.254 479.452H280.867C280.924 479.182 281.002 478.815 281.102 478.353C281.203 477.895 281.301 477.382 281.397 476.815C281.493 476.247 281.565 475.669 281.613 475.08L281.678 474.347H283.563ZM290.482 476.402C289.448 476.398 288.564 476.125 287.831 475.584C287.098 475.043 286.537 474.255 286.149 473.221C285.76 472.187 285.566 470.941 285.566 469.484C285.566 468.031 285.76 466.789 286.149 465.76C286.541 464.73 287.104 463.944 287.837 463.403C288.575 462.862 289.456 462.592 290.482 462.592C291.507 462.592 292.386 462.865 293.119 463.41C293.852 463.951 294.413 464.736 294.802 465.766C295.194 466.792 295.391 468.031 295.391 469.484C295.391 470.946 295.196 472.194 294.808 473.228C294.42 474.258 293.859 475.045 293.126 475.591C292.393 476.132 291.511 476.402 290.482 476.402ZM290.482 474.655C291.389 474.655 292.098 474.212 292.609 473.326C293.124 472.44 293.381 471.16 293.381 469.484C293.381 468.371 293.263 467.431 293.028 466.663C292.797 465.891 292.463 465.306 292.026 464.909C291.594 464.507 291.08 464.307 290.482 464.307C289.578 464.307 288.869 464.752 288.355 465.642C287.84 466.532 287.58 467.813 287.576 469.484C287.576 470.601 287.691 471.546 287.923 472.318C288.158 473.086 288.492 473.669 288.924 474.066C289.356 474.458 289.875 474.655 290.482 474.655ZM302.379 476.402C301.345 476.398 300.462 476.125 299.728 475.584C298.995 475.043 298.435 474.255 298.046 473.221C297.658 472.187 297.464 470.941 297.464 469.484C297.464 468.031 297.658 466.789 298.046 465.76C298.439 464.73 299.002 463.944 299.735 463.403C300.472 462.862 301.354 462.592 302.379 462.592C303.405 462.592 304.284 462.865 305.017 463.41C305.75 463.951 306.311 464.736 306.699 465.766C307.092 466.792 307.288 468.031 307.288 469.484C307.288 470.946 307.094 472.194 306.706 473.228C306.317 474.258 305.757 475.045 305.024 475.591C304.29 476.132 303.409 476.402 302.379 476.402ZM302.379 474.655C303.287 474.655 303.996 474.212 304.506 473.326C305.021 472.44 305.279 471.16 305.279 469.484C305.279 468.371 305.161 467.431 304.925 466.663C304.694 465.891 304.36 465.306 303.924 464.909C303.492 464.507 302.977 464.307 302.379 464.307C301.476 464.307 300.767 464.752 300.252 465.642C299.737 466.532 299.478 467.813 299.473 469.484C299.473 470.601 299.589 471.546 299.82 472.318C300.056 473.086 300.39 473.669 300.822 474.066C301.254 474.458 301.773 474.655 302.379 474.655ZM314.277 476.402C313.243 476.398 312.359 476.125 311.626 475.584C310.893 475.043 310.332 474.255 309.944 473.221C309.556 472.187 309.361 470.941 309.361 469.484C309.361 468.031 309.556 466.789 309.944 465.76C310.337 464.73 310.9 463.944 311.633 463.403C312.37 462.862 313.251 462.592 314.277 462.592C315.302 462.592 316.182 462.865 316.915 463.41C317.648 463.951 318.208 464.736 318.597 465.766C318.989 466.792 319.186 468.031 319.186 469.484C319.186 470.946 318.992 472.194 318.603 473.228C318.215 474.258 317.654 475.045 316.921 475.591C316.188 476.132 315.307 476.402 314.277 476.402ZM314.277 474.655C315.184 474.655 315.894 474.212 316.404 473.326C316.919 472.44 317.176 471.16 317.176 469.484C317.176 468.371 317.059 467.431 316.823 466.663C316.592 465.891 316.258 465.306 315.822 464.909C315.39 464.507 314.875 464.307 314.277 464.307C313.374 464.307 312.665 464.752 312.15 465.642C311.635 466.532 311.375 467.813 311.371 469.484C311.371 470.601 311.486 471.546 311.718 472.318C311.953 473.086 312.287 473.669 312.719 474.066C313.151 474.458 313.67 474.655 314.277 474.655Z" fill="#222B45"/>
<rect x="386.031" y="416.18" width="1.85149" height="31.5666" fill="#BDC9D3"/>
<path d="M415.969 436.182H440.983" stroke="#05C283" stroke-width="3.94957" stroke-linecap="round"/>
<circle cx="428.475" cy="436.182" r="5.92436" fill="#07E098"/>
<path d="M452.877 429.506V427.86H464.366V429.506H459.549V443.18H457.694V429.506H452.877ZM468.755 436.268V443.18H466.99V427.86H468.755V433.485H468.905C469.174 432.892 469.578 432.421 470.117 432.072C470.66 431.717 471.383 431.54 472.286 431.54C473.069 431.54 473.755 431.698 474.343 432.012C474.932 432.321 475.388 432.797 475.712 433.44C476.041 434.079 476.206 434.892 476.206 435.879V443.18H474.44V435.999C474.44 435.086 474.203 434.38 473.73 433.882C473.261 433.378 472.61 433.126 471.777 433.126C471.199 433.126 470.68 433.248 470.222 433.493C469.768 433.737 469.409 434.094 469.144 434.562C468.885 435.031 468.755 435.6 468.755 436.268ZM479.435 443.18V431.69H481.201V443.18H479.435ZM480.333 429.775C479.989 429.775 479.692 429.658 479.443 429.424C479.198 429.189 479.076 428.907 479.076 428.578C479.076 428.249 479.198 427.967 479.443 427.733C479.692 427.499 479.989 427.381 480.333 427.381C480.677 427.381 480.971 427.499 481.216 427.733C481.465 427.967 481.59 428.249 481.59 428.578C481.59 428.907 481.465 429.189 481.216 429.424C480.971 429.658 480.677 429.775 480.333 429.775ZM492.572 434.263L490.987 434.712C490.887 434.448 490.74 434.191 490.545 433.942C490.356 433.687 490.097 433.478 489.767 433.313C489.438 433.149 489.017 433.066 488.503 433.066C487.8 433.066 487.214 433.228 486.745 433.553C486.282 433.872 486.05 434.278 486.05 434.772C486.05 435.211 486.209 435.557 486.528 435.812C486.848 436.066 487.346 436.278 488.025 436.447L489.73 436.866C490.757 437.116 491.523 437.497 492.026 438.011C492.53 438.519 492.782 439.175 492.782 439.978C492.782 440.636 492.592 441.225 492.213 441.743C491.839 442.262 491.316 442.671 490.643 442.97C489.969 443.269 489.186 443.419 488.294 443.419C487.122 443.419 486.152 443.165 485.384 442.656C484.616 442.147 484.13 441.404 483.925 440.427L485.601 440.008C485.76 440.626 486.062 441.09 486.506 441.399C486.955 441.709 487.541 441.863 488.264 441.863C489.087 441.863 489.74 441.689 490.224 441.34C490.712 440.985 490.957 440.562 490.957 440.068C490.957 439.669 490.817 439.335 490.538 439.066C490.259 438.791 489.83 438.587 489.251 438.452L487.336 438.003C486.284 437.754 485.511 437.368 485.017 436.844C484.529 436.315 484.284 435.655 484.284 434.862C484.284 434.213 484.466 433.64 484.83 433.141C485.199 432.643 485.701 432.251 486.334 431.967C486.972 431.683 487.695 431.54 488.503 431.54C489.64 431.54 490.533 431.79 491.181 432.288C491.834 432.787 492.298 433.445 492.572 434.263ZM501.603 427.86H503.817L509.023 440.577H509.203L514.409 427.86H516.623V443.18H514.888V431.54H514.738L509.951 443.18H508.275L503.488 431.54H503.338V443.18H501.603V427.86ZM524.771 443.419C523.734 443.419 522.824 443.172 522.041 442.679C521.263 442.185 520.655 441.494 520.216 440.606C519.782 439.719 519.565 438.682 519.565 437.495C519.565 436.298 519.782 435.253 520.216 434.36C520.655 433.468 521.263 432.775 522.041 432.281C522.824 431.787 523.734 431.54 524.771 431.54C525.808 431.54 526.716 431.787 527.494 432.281C528.277 432.775 528.885 433.468 529.319 434.36C529.758 435.253 529.977 436.298 529.977 437.495C529.977 438.682 529.758 439.719 529.319 440.606C528.885 441.494 528.277 442.185 527.494 442.679C526.716 443.172 525.808 443.419 524.771 443.419ZM524.771 441.833C525.559 441.833 526.207 441.631 526.716 441.227C527.225 440.823 527.601 440.292 527.846 439.634C528.09 438.976 528.212 438.263 528.212 437.495C528.212 436.727 528.09 436.011 527.846 435.348C527.601 434.685 527.225 434.149 526.716 433.74C526.207 433.331 525.559 433.126 524.771 433.126C523.983 433.126 523.335 433.331 522.826 433.74C522.318 434.149 521.941 434.685 521.697 435.348C521.452 436.011 521.33 436.727 521.33 437.495C521.33 438.263 521.452 438.976 521.697 439.634C521.941 440.292 522.318 440.823 522.826 441.227C523.335 441.631 523.983 441.833 524.771 441.833ZM534.438 436.268V443.18H532.672V431.69H534.378V433.485H534.527C534.797 432.902 535.206 432.433 535.754 432.079C536.303 431.72 537.011 431.54 537.878 431.54C538.656 431.54 539.337 431.7 539.921 432.019C540.504 432.333 540.958 432.812 541.282 433.455C541.606 434.094 541.768 434.902 541.768 435.879V443.18H540.003V435.999C540.003 435.096 539.768 434.393 539.3 433.889C538.831 433.381 538.188 433.126 537.37 433.126C536.806 433.126 536.303 433.248 535.859 433.493C535.42 433.737 535.073 434.094 534.819 434.562C534.565 435.031 534.438 435.6 534.438 436.268ZM549.991 431.69V433.186H544.037V431.69H549.991ZM545.772 428.937H547.537V439.888C547.537 440.387 547.61 440.761 547.754 441.01C547.904 441.255 548.093 441.419 548.323 441.504C548.557 441.584 548.804 441.624 549.063 441.624C549.258 441.624 549.417 441.614 549.542 441.594C549.667 441.569 549.766 441.549 549.841 441.534L550.2 443.12C550.081 443.165 549.914 443.21 549.699 443.254C549.485 443.304 549.213 443.329 548.884 443.329C548.385 443.329 547.896 443.222 547.418 443.008C546.944 442.793 546.55 442.467 546.236 442.028C545.927 441.589 545.772 441.035 545.772 440.367V428.937ZM554.659 436.268V443.18H552.893V427.86H554.659V433.485H554.808C555.077 432.892 555.481 432.421 556.02 432.072C556.564 431.717 557.287 431.54 558.189 431.54C558.972 431.54 559.658 431.698 560.246 432.012C560.835 432.321 561.291 432.797 561.615 433.44C561.944 434.079 562.109 434.892 562.109 435.879V443.18H560.344V435.999C560.344 435.086 560.107 434.38 559.633 433.882C559.164 433.378 558.513 433.126 557.681 433.126C557.102 433.126 556.583 433.248 556.125 433.493C555.671 433.737 555.312 434.094 555.048 434.562C554.788 435.031 554.659 435.6 554.659 436.268Z" fill="#96A5B8"/>
<path d="M457.34 477.855V461.1H458.413V477.855H457.34ZM460.698 466.296C460.628 465.677 460.34 465.197 459.834 464.856C459.328 464.512 458.691 464.339 457.923 464.339C457.373 464.339 456.897 464.427 456.496 464.601C456.094 464.771 455.782 465.007 455.56 465.308C455.342 465.605 455.232 465.943 455.232 466.323C455.232 466.641 455.307 466.916 455.455 467.147C455.608 467.379 455.806 467.573 456.051 467.73C456.299 467.883 456.566 468.011 456.849 468.116C457.133 468.216 457.405 468.299 457.667 468.365L458.976 468.705C459.404 468.81 459.843 468.952 460.292 469.13C460.741 469.309 461.158 469.545 461.542 469.837C461.926 470.13 462.236 470.492 462.471 470.924C462.711 471.356 462.831 471.873 462.831 472.475C462.831 473.234 462.635 473.908 462.242 474.498C461.854 475.087 461.289 475.551 460.547 475.892C459.81 476.232 458.917 476.402 457.87 476.402C456.867 476.402 455.998 476.243 455.265 475.924C454.532 475.606 453.958 475.154 453.544 474.57C453.129 473.98 452.9 473.282 452.857 472.475H454.886C454.925 472.959 455.082 473.363 455.357 473.686C455.636 474.004 455.992 474.242 456.424 474.399C456.86 474.552 457.338 474.628 457.857 474.628C458.429 474.628 458.937 474.539 459.382 474.36C459.832 474.177 460.185 473.924 460.442 473.601C460.7 473.274 460.829 472.892 460.829 472.455C460.829 472.058 460.715 471.733 460.488 471.48C460.266 471.227 459.962 471.018 459.579 470.852C459.199 470.686 458.769 470.54 458.289 470.413L456.705 469.981C455.632 469.689 454.781 469.259 454.153 468.692C453.529 468.125 453.217 467.374 453.217 466.44C453.217 465.668 453.426 464.994 453.845 464.418C454.264 463.842 454.831 463.395 455.547 463.076C456.262 462.753 457.07 462.592 457.968 462.592C458.876 462.592 459.677 462.751 460.37 463.07C461.069 463.388 461.618 463.827 462.02 464.385C462.421 464.939 462.631 465.576 462.648 466.296H460.698ZM469.732 476.363C468.833 476.363 468.03 476.208 467.323 475.898C466.621 475.588 466.064 475.159 465.654 474.609C465.248 474.055 465.03 473.413 465 472.685H467.055C467.081 473.082 467.214 473.426 467.454 473.719C467.698 474.007 468.017 474.229 468.41 474.386C468.802 474.543 469.239 474.622 469.719 474.622C470.247 474.622 470.714 474.53 471.119 474.347C471.53 474.164 471.85 473.908 472.082 473.581C472.313 473.25 472.428 472.868 472.428 472.436C472.428 471.986 472.313 471.591 472.082 471.251C471.855 470.906 471.521 470.636 471.08 470.44C470.644 470.243 470.116 470.145 469.496 470.145H468.364V468.496H469.496C469.994 468.496 470.43 468.406 470.805 468.227C471.185 468.048 471.482 467.8 471.695 467.481C471.909 467.158 472.016 466.781 472.016 466.349C472.016 465.934 471.922 465.574 471.735 465.269C471.551 464.959 471.29 464.717 470.949 464.542C470.613 464.368 470.216 464.28 469.758 464.28C469.322 464.28 468.914 464.361 468.534 464.523C468.159 464.68 467.853 464.907 467.618 465.203C467.382 465.496 467.256 465.847 467.238 466.257H465.281C465.303 465.533 465.517 464.896 465.922 464.346C466.333 463.796 466.874 463.366 467.546 463.057C468.218 462.747 468.964 462.592 469.784 462.592C470.644 462.592 471.386 462.76 472.01 463.096C472.638 463.427 473.122 463.87 473.463 464.424C473.807 464.979 473.977 465.585 473.973 466.244C473.977 466.995 473.768 467.632 473.345 468.155C472.926 468.679 472.367 469.03 471.669 469.209V469.314C472.559 469.449 473.249 469.802 473.737 470.374C474.231 470.946 474.475 471.655 474.471 472.501C474.475 473.239 474.27 473.9 473.855 474.484C473.445 475.069 472.884 475.53 472.173 475.866C471.462 476.197 470.648 476.363 469.732 476.363ZM476.663 473.562V471.925L482.456 462.775H483.745V465.184H482.927L478.784 471.742V471.847H486.723V473.562H476.663ZM483.019 476.18V473.064L483.032 472.318V462.775H484.949V476.18H483.019ZM491.072 474.347L490.974 475.06C490.909 475.584 490.798 476.13 490.64 476.697C490.488 477.268 490.328 477.799 490.163 478.287C490.001 478.776 489.868 479.164 489.763 479.452H488.376C488.433 479.182 488.511 478.815 488.611 478.353C488.712 477.895 488.81 477.382 488.906 476.815C489.002 476.247 489.074 475.669 489.122 475.08L489.187 474.347H491.072ZM497.991 476.402C496.957 476.398 496.073 476.125 495.34 475.584C494.607 475.043 494.046 474.255 493.658 473.221C493.269 472.187 493.075 470.941 493.075 469.484C493.075 468.031 493.269 466.789 493.658 465.76C494.051 464.73 494.613 463.944 495.346 463.403C496.084 462.862 496.965 462.592 497.991 462.592C499.016 462.592 499.895 462.865 500.628 463.41C501.362 463.951 501.922 464.736 502.311 465.766C502.703 466.792 502.9 468.031 502.9 469.484C502.9 470.946 502.705 472.194 502.317 473.228C501.929 474.258 501.368 475.045 500.635 475.591C499.902 476.132 499.021 476.402 497.991 476.402ZM497.991 474.655C498.898 474.655 499.607 474.212 500.118 473.326C500.633 472.44 500.89 471.16 500.89 469.484C500.89 468.371 500.772 467.431 500.537 466.663C500.306 465.891 499.972 465.306 499.535 464.909C499.103 464.507 498.589 464.307 497.991 464.307C497.088 464.307 496.378 464.752 495.864 465.642C495.349 466.532 495.089 467.813 495.085 469.484C495.085 470.601 495.2 471.546 495.432 472.318C495.667 473.086 496.001 473.669 496.433 474.066C496.865 474.458 497.384 474.655 497.991 474.655ZM509.646 476.363C508.826 476.363 508.088 476.206 507.434 475.892C506.784 475.573 506.264 475.137 505.876 474.583C505.488 474.028 505.28 473.396 505.254 472.685H507.218C507.266 473.261 507.521 473.734 507.984 474.105C508.446 474.476 509 474.661 509.646 474.661C510.161 474.661 510.617 474.543 511.014 474.308C511.416 474.068 511.73 473.738 511.957 473.319C512.188 472.901 512.304 472.423 512.304 471.886C512.304 471.341 512.186 470.854 511.95 470.426C511.714 469.999 511.389 469.663 510.975 469.418C510.565 469.174 510.093 469.05 509.561 469.045C509.155 469.045 508.747 469.115 508.337 469.255C507.927 469.394 507.595 469.578 507.342 469.805L505.49 469.53L506.243 462.775H513.613V464.51H507.925L507.499 468.26H507.578C507.84 468.007 508.187 467.795 508.619 467.625C509.055 467.455 509.522 467.37 510.019 467.37C510.835 467.37 511.562 467.564 512.199 467.952C512.84 468.341 513.344 468.871 513.711 469.543C514.082 470.21 514.265 470.978 514.261 471.847C514.265 472.715 514.069 473.49 513.671 474.17C513.279 474.851 512.733 475.388 512.035 475.78C511.341 476.169 510.545 476.363 509.646 476.363ZM521.318 476.402C520.284 476.398 519.4 476.125 518.667 475.584C517.934 475.043 517.373 474.255 516.985 473.221C516.597 472.187 516.402 470.941 516.402 469.484C516.402 468.031 516.597 466.789 516.985 465.76C517.378 464.73 517.941 463.944 518.674 463.403C519.411 462.862 520.292 462.592 521.318 462.592C522.343 462.592 523.223 462.865 523.956 463.41C524.689 463.951 525.249 464.736 525.638 465.766C526.03 466.792 526.227 468.031 526.227 469.484C526.227 470.946 526.033 472.194 525.644 473.228C525.256 474.258 524.695 475.045 523.962 475.591C523.229 476.132 522.348 476.402 521.318 476.402ZM521.318 474.655C522.226 474.655 522.935 474.212 523.445 473.326C523.96 472.44 524.217 471.16 524.217 469.484C524.217 468.371 524.1 467.431 523.864 466.663C523.633 465.891 523.299 465.306 522.863 464.909C522.431 464.507 521.916 464.307 521.318 464.307C520.415 464.307 519.706 464.752 519.191 465.642C518.676 466.532 518.416 467.813 518.412 469.484C518.412 470.601 518.527 471.546 518.759 472.318C518.994 473.086 519.328 473.669 519.76 474.066C520.192 474.458 520.711 474.655 521.318 474.655Z" fill="#222B45"/>
<path d="M106.647 140.016V122.143H113.018C114.403 122.143 115.552 122.381 116.465 122.858C117.384 123.336 118.071 123.996 118.525 124.839C118.978 125.677 119.205 126.646 119.205 127.746C119.205 128.839 118.975 129.802 118.516 130.634C118.062 131.46 117.375 132.103 116.456 132.563C115.543 133.022 114.394 133.252 113.009 133.252H108.183V130.931H112.765C113.637 130.931 114.347 130.806 114.894 130.556C115.447 130.305 115.851 129.942 116.107 129.465C116.363 128.988 116.491 128.415 116.491 127.746C116.491 127.071 116.36 126.486 116.098 125.991C115.842 125.497 115.438 125.119 114.885 124.857C114.339 124.589 113.62 124.455 112.73 124.455H109.344V140.016H106.647ZM115.47 131.952L119.886 140.016H116.814L112.485 131.952H115.47ZM127.886 140.286C126.566 140.286 125.428 140.004 124.474 139.44C123.526 138.869 122.793 138.07 122.275 137.04C121.763 136.004 121.507 134.791 121.507 133.401C121.507 132.028 121.763 130.817 122.275 129.77C122.793 128.723 123.514 127.906 124.439 127.318C125.37 126.73 126.458 126.436 127.703 126.436C128.459 126.436 129.193 126.562 129.902 126.812C130.612 127.062 131.249 127.455 131.814 127.99C132.378 128.525 132.823 129.22 133.149 130.076C133.475 130.925 133.637 131.958 133.637 133.174V134.099H122.982V132.144H131.08C131.08 131.457 130.941 130.849 130.662 130.32C130.382 129.785 129.99 129.363 129.483 129.055C128.983 128.746 128.395 128.592 127.721 128.592C126.988 128.592 126.348 128.772 125.801 129.133C125.26 129.488 124.841 129.953 124.544 130.529C124.253 131.1 124.108 131.719 124.108 132.388V133.915C124.108 134.811 124.265 135.574 124.579 136.202C124.899 136.83 125.344 137.31 125.914 137.642C126.484 137.968 127.15 138.131 127.913 138.131C128.407 138.131 128.858 138.061 129.265 137.921C129.673 137.776 130.024 137.56 130.321 137.275C130.618 136.99 130.845 136.638 131.002 136.219L133.472 136.664C133.274 137.392 132.919 138.029 132.407 138.576C131.901 139.117 131.264 139.539 130.496 139.841C129.734 140.138 128.864 140.286 127.886 140.286ZM147.616 126.611L142.755 140.016H139.962L135.093 126.611H137.894L141.289 136.926H141.428L144.814 126.611H147.616ZM155.389 140.286C154.069 140.286 152.931 140.004 151.977 139.44C151.029 138.869 150.296 138.07 149.778 137.04C149.266 136.004 149.01 134.791 149.01 133.401C149.01 132.028 149.266 130.817 149.778 129.77C150.296 128.723 151.017 127.906 151.942 127.318C152.873 126.73 153.961 126.436 155.206 126.436C155.962 126.436 156.696 126.562 157.405 126.812C158.115 127.062 158.752 127.455 159.317 127.99C159.881 128.525 160.326 129.22 160.652 130.076C160.978 130.925 161.14 131.958 161.14 133.174V134.099H150.485V132.144H158.583C158.583 131.457 158.444 130.849 158.165 130.32C157.885 129.785 157.493 129.363 156.986 129.055C156.486 128.746 155.898 128.592 155.224 128.592C154.491 128.592 153.851 128.772 153.304 129.133C152.763 129.488 152.344 129.953 152.047 130.529C151.756 131.1 151.611 131.719 151.611 132.388V133.915C151.611 134.811 151.768 135.574 152.082 136.202C152.402 136.83 152.847 137.31 153.417 137.642C153.987 137.968 154.653 138.131 155.416 138.131C155.91 138.131 156.361 138.061 156.768 137.921C157.176 137.776 157.527 137.56 157.824 137.275C158.121 136.99 158.348 136.638 158.505 136.219L160.975 136.664C160.777 137.392 160.422 138.029 159.91 138.576C159.404 139.117 158.767 139.539 157.999 139.841C157.237 140.138 156.367 140.286 155.389 140.286ZM166.645 132.057V140.016H164.036V126.611H166.54V128.793H166.706C167.014 128.083 167.497 127.513 168.155 127.082C168.818 126.652 169.653 126.436 170.659 126.436C171.573 126.436 172.373 126.628 173.059 127.012C173.746 127.391 174.278 127.955 174.656 128.705C175.034 129.456 175.224 130.384 175.224 131.489V140.016H172.614V131.804C172.614 130.832 172.361 130.073 171.855 129.526C171.349 128.973 170.654 128.697 169.769 128.697C169.164 128.697 168.626 128.828 168.155 129.089C167.689 129.351 167.32 129.735 167.046 130.241C166.779 130.742 166.645 131.347 166.645 132.057ZM187.214 134.457V126.611H189.832V140.016H187.267V137.694H187.127C186.819 138.41 186.324 139.006 185.644 139.483C184.969 139.955 184.128 140.19 183.121 140.19C182.26 140.19 181.498 140.001 180.835 139.623C180.178 139.239 179.66 138.672 179.282 137.921C178.909 137.171 178.723 136.243 178.723 135.137V126.611H181.332V134.823C181.332 135.737 181.586 136.464 182.092 137.005C182.598 137.546 183.255 137.816 184.064 137.816C184.553 137.816 185.038 137.694 185.521 137.45C186.01 137.206 186.414 136.836 186.734 136.342C187.06 135.847 187.22 135.219 187.214 134.457ZM199.116 140.286C197.795 140.286 196.658 140.004 195.704 139.44C194.755 138.869 194.022 138.07 193.504 137.04C192.992 136.004 192.736 134.791 192.736 133.401C192.736 132.028 192.992 130.817 193.504 129.77C194.022 128.723 194.744 127.906 195.669 127.318C196.6 126.73 197.687 126.436 198.933 126.436C199.689 126.436 200.422 126.562 201.132 126.812C201.842 127.062 202.479 127.455 203.043 127.99C203.607 128.525 204.052 129.22 204.378 130.076C204.704 130.925 204.867 131.958 204.867 133.174V134.099H194.211V132.144H202.31C202.31 131.457 202.17 130.849 201.891 130.32C201.612 129.785 201.219 129.363 200.713 129.055C200.212 128.746 199.625 128.592 198.95 128.592C198.217 128.592 197.577 128.772 197.03 129.133C196.489 129.488 196.07 129.953 195.773 130.529C195.482 131.1 195.337 131.719 195.337 132.388V133.915C195.337 134.811 195.494 135.574 195.808 136.202C196.128 136.83 196.573 137.31 197.144 137.642C197.714 137.968 198.38 138.131 199.142 138.131C199.637 138.131 200.087 138.061 200.495 137.921C200.902 137.776 201.254 137.56 201.551 137.275C201.847 136.99 202.074 136.638 202.231 136.219L204.701 136.664C204.503 137.392 204.148 138.029 203.636 138.576C203.13 139.117 202.493 139.539 201.725 139.841C200.963 140.138 200.093 140.286 199.116 140.286ZM226.571 127.789C226.402 127.26 226.175 126.786 225.89 126.367C225.611 125.942 225.276 125.581 224.886 125.285C224.497 124.982 224.052 124.752 223.551 124.595C223.057 124.438 222.513 124.359 221.919 124.359C220.913 124.359 220.005 124.618 219.197 125.136C218.388 125.654 217.748 126.413 217.277 127.414C216.811 128.409 216.578 129.628 216.578 131.07C216.578 132.519 216.814 133.744 217.285 134.745C217.757 135.745 218.402 136.504 219.223 137.022C220.043 137.54 220.977 137.799 222.024 137.799C222.996 137.799 223.842 137.601 224.564 137.206C225.291 136.81 225.852 136.251 226.248 135.53C226.649 134.803 226.85 133.947 226.85 132.964L227.548 133.095H222.434V130.87H229.459V132.903C229.459 134.404 229.139 135.707 228.499 136.813C227.865 137.912 226.987 138.762 225.864 139.361C224.747 139.96 223.467 140.26 222.024 140.26C220.407 140.26 218.987 139.888 217.765 139.143C216.549 138.398 215.601 137.342 214.92 135.975C214.24 134.602 213.899 132.973 213.899 131.088C213.899 129.663 214.097 128.383 214.493 127.248C214.888 126.114 215.444 125.151 216.16 124.359C216.881 123.562 217.727 122.954 218.699 122.536C219.677 122.111 220.744 121.898 221.902 121.898C222.868 121.898 223.767 122.041 224.599 122.326C225.436 122.611 226.181 123.016 226.833 123.539C227.49 124.063 228.034 124.685 228.465 125.407C228.895 126.122 229.186 126.916 229.337 127.789H226.571ZM238.45 140.286C237.13 140.286 235.992 140.004 235.038 139.44C234.09 138.869 233.357 138.07 232.839 137.04C232.327 136.004 232.071 134.791 232.071 133.401C232.071 132.028 232.327 130.817 232.839 129.77C233.357 128.723 234.078 127.906 235.003 127.318C235.934 126.73 237.022 126.436 238.267 126.436C239.023 126.436 239.756 126.562 240.466 126.812C241.176 127.062 241.813 127.455 242.377 127.99C242.942 128.525 243.387 129.22 243.713 130.076C244.039 130.925 244.201 131.958 244.201 133.174V134.099H233.546V132.144H241.644C241.644 131.457 241.505 130.849 241.226 130.32C240.946 129.785 240.554 129.363 240.047 129.055C239.547 128.746 238.959 128.592 238.285 128.592C237.551 128.592 236.912 128.772 236.365 129.133C235.824 129.488 235.405 129.953 235.108 130.529C234.817 131.1 234.672 131.719 234.672 132.388V133.915C234.672 134.811 234.829 135.574 235.143 136.202C235.463 136.83 235.908 137.31 236.478 137.642C237.048 137.968 237.714 138.131 238.477 138.131C238.971 138.131 239.422 138.061 239.829 137.921C240.236 137.776 240.588 137.56 240.885 137.275C241.182 136.99 241.409 136.638 241.566 136.219L244.036 136.664C243.838 137.392 243.483 138.029 242.971 138.576C242.465 139.117 241.828 139.539 241.06 139.841C240.298 140.138 239.428 140.286 238.45 140.286ZM249.706 132.057V140.016H247.097V126.611H249.601V128.793H249.767C250.075 128.083 250.558 127.513 251.216 127.082C251.879 126.652 252.714 126.436 253.72 126.436C254.634 126.436 255.434 126.628 256.12 127.012C256.807 127.391 257.339 127.955 257.717 128.705C258.095 129.456 258.285 130.384 258.285 131.489V140.016H255.675V131.804C255.675 130.832 255.422 130.073 254.916 129.526C254.41 128.973 253.715 128.697 252.83 128.697C252.225 128.697 251.687 128.828 251.216 129.089C250.75 129.351 250.381 129.735 250.107 130.241C249.84 130.742 249.706 131.347 249.706 132.057ZM267.561 140.286C266.241 140.286 265.103 140.004 264.149 139.44C263.201 138.869 262.468 138.07 261.95 137.04C261.438 136.004 261.182 134.791 261.182 133.401C261.182 132.028 261.438 130.817 261.95 129.77C262.468 128.723 263.189 127.906 264.114 127.318C265.045 126.73 266.133 126.436 267.378 126.436C268.134 126.436 268.867 126.562 269.577 126.812C270.287 127.062 270.924 127.455 271.488 127.99C272.053 128.525 272.498 129.22 272.824 130.076C273.149 130.925 273.312 131.958 273.312 133.174V134.099H262.657V132.144H270.755C270.755 131.457 270.616 130.849 270.336 130.32C270.057 129.785 269.664 129.363 269.158 129.055C268.658 128.746 268.07 128.592 267.395 128.592C266.662 128.592 266.022 128.772 265.476 129.133C264.934 129.488 264.516 129.953 264.219 130.529C263.928 131.1 263.783 131.719 263.783 132.388V133.915C263.783 134.811 263.94 135.574 264.254 136.202C264.574 136.83 265.019 137.31 265.589 137.642C266.159 137.968 266.825 138.131 267.587 138.131C268.082 138.131 268.533 138.061 268.94 137.921C269.347 137.776 269.699 137.56 269.996 137.275C270.293 136.99 270.52 136.638 270.677 136.219L273.147 136.664C272.949 137.392 272.594 138.029 272.082 138.576C271.576 139.117 270.939 139.539 270.171 139.841C269.409 140.138 268.539 140.286 267.561 140.286ZM276.208 140.016V126.611H278.73V128.74H278.869C279.114 128.019 279.544 127.452 280.161 127.039C280.783 126.62 281.487 126.41 282.273 126.41C282.436 126.41 282.628 126.416 282.849 126.428C283.076 126.439 283.253 126.454 283.381 126.471V128.967C283.276 128.938 283.09 128.906 282.823 128.871C282.555 128.831 282.287 128.81 282.02 128.81C281.403 128.81 280.853 128.941 280.37 129.203C279.893 129.459 279.515 129.817 279.236 130.276C278.957 130.73 278.817 131.248 278.817 131.83V140.016H276.208ZM289.42 140.312C288.571 140.312 287.803 140.155 287.116 139.841C286.43 139.521 285.886 139.059 285.484 138.453C285.089 137.848 284.891 137.107 284.891 136.228C284.891 135.472 285.036 134.849 285.327 134.361C285.618 133.872 286.011 133.485 286.505 133.2C287 132.915 287.553 132.7 288.163 132.554C288.774 132.409 289.397 132.298 290.031 132.222C290.834 132.129 291.486 132.054 291.986 131.996C292.486 131.932 292.85 131.83 293.077 131.69C293.304 131.55 293.417 131.324 293.417 131.009V130.948C293.417 130.186 293.202 129.596 292.771 129.177C292.347 128.758 291.712 128.548 290.869 128.548C289.99 128.548 289.298 128.743 288.792 129.133C288.291 129.517 287.945 129.945 287.753 130.416L285.301 129.857C285.592 129.043 286.017 128.386 286.575 127.885C287.139 127.379 287.788 127.012 288.521 126.786C289.254 126.553 290.025 126.436 290.834 126.436C291.369 126.436 291.936 126.5 292.536 126.628C293.141 126.751 293.705 126.978 294.229 127.309C294.758 127.641 295.192 128.115 295.529 128.732C295.866 129.343 296.035 130.137 296.035 131.114V140.016H293.487V138.183H293.382C293.213 138.52 292.96 138.852 292.623 139.178C292.285 139.504 291.852 139.774 291.323 139.989C290.793 140.205 290.159 140.312 289.42 140.312ZM289.987 138.218C290.709 138.218 291.326 138.075 291.838 137.79C292.355 137.505 292.748 137.133 293.016 136.673C293.289 136.208 293.426 135.71 293.426 135.181V133.453C293.333 133.546 293.152 133.633 292.885 133.715C292.623 133.79 292.323 133.857 291.986 133.915C291.648 133.968 291.32 134.017 291 134.064C290.68 134.105 290.412 134.139 290.197 134.169C289.691 134.233 289.228 134.34 288.809 134.491C288.396 134.643 288.065 134.861 287.814 135.146C287.57 135.425 287.448 135.798 287.448 136.263C287.448 136.909 287.686 137.398 288.163 137.729C288.641 138.055 289.249 138.218 289.987 138.218ZM305.768 126.611V128.705H298.446V126.611H305.768ZM300.41 123.4H303.019V136.08C303.019 136.586 303.095 136.967 303.246 137.223C303.397 137.473 303.592 137.645 303.831 137.738C304.075 137.825 304.34 137.869 304.625 137.869C304.834 137.869 305.017 137.854 305.174 137.825C305.332 137.796 305.454 137.773 305.541 137.755L306.012 139.911C305.861 139.969 305.646 140.027 305.366 140.085C305.087 140.149 304.738 140.184 304.319 140.19C303.633 140.202 302.993 140.08 302.399 139.824C301.806 139.568 301.326 139.172 300.959 138.637C300.593 138.102 300.41 137.43 300.41 136.621V123.4ZM314.288 140.286C312.967 140.286 311.83 140.004 310.875 139.44C309.927 138.869 309.194 138.07 308.676 137.04C308.164 136.004 307.908 134.791 307.908 133.401C307.908 132.028 308.164 130.817 308.676 129.77C309.194 128.723 309.915 127.906 310.84 127.318C311.771 126.73 312.859 126.436 314.104 126.436C314.861 126.436 315.594 126.562 316.304 126.812C317.013 127.062 317.65 127.455 318.215 127.99C318.779 128.525 319.224 129.22 319.55 130.076C319.876 130.925 320.039 131.958 320.039 133.174V134.099H309.383V132.144H317.482C317.482 131.457 317.342 130.849 317.063 130.32C316.784 129.785 316.391 129.363 315.885 129.055C315.384 128.746 314.797 128.592 314.122 128.592C313.389 128.592 312.749 128.772 312.202 129.133C311.661 129.488 311.242 129.953 310.945 130.529C310.654 131.1 310.509 131.719 310.509 132.388V133.915C310.509 134.811 310.666 135.574 310.98 136.202C311.3 136.83 311.745 137.31 312.315 137.642C312.885 137.968 313.552 138.131 314.314 138.131C314.808 138.131 315.259 138.061 315.666 137.921C316.074 137.776 316.426 137.56 316.722 137.275C317.019 136.99 317.246 136.638 317.403 136.219L319.873 136.664C319.675 137.392 319.32 138.029 318.808 138.576C318.302 139.117 317.665 139.539 316.897 139.841C316.135 140.138 315.265 140.286 314.288 140.286ZM327.952 140.277C326.87 140.277 325.904 140.001 325.054 139.448C324.211 138.89 323.548 138.096 323.065 137.066C322.588 136.03 322.349 134.788 322.349 133.34C322.349 131.891 322.591 130.652 323.073 129.622C323.562 128.592 324.231 127.804 325.081 127.257C325.93 126.71 326.893 126.436 327.969 126.436C328.801 126.436 329.47 126.576 329.976 126.855C330.488 127.129 330.884 127.449 331.163 127.815C331.448 128.182 331.67 128.505 331.827 128.784H331.984V122.143H334.593V140.016H332.045V137.93H331.827C331.67 138.215 331.443 138.541 331.146 138.907C330.855 139.274 330.454 139.594 329.942 139.867C329.43 140.141 328.766 140.277 327.952 140.277ZM328.528 138.052C329.278 138.052 329.912 137.854 330.43 137.459C330.954 137.057 331.35 136.502 331.617 135.792C331.891 135.082 332.027 134.256 332.027 133.313C332.027 132.382 331.894 131.568 331.626 130.87C331.358 130.172 330.966 129.628 330.448 129.238C329.93 128.848 329.29 128.653 328.528 128.653C327.742 128.653 327.088 128.857 326.564 129.264C326.041 129.671 325.645 130.227 325.377 130.931C325.116 131.635 324.985 132.429 324.985 133.313C324.985 134.209 325.118 135.015 325.386 135.731C325.654 136.446 326.049 137.014 326.573 137.432C327.102 137.846 327.754 138.052 328.528 138.052Z" fill="#05004E"/>
<path d="M91.0859 223.901C135.748 232.396 171.893 254.305 222.203 254.305C272.513 254.305 288.705 237.873 321.017 237.873C353.328 237.873 375.042 270.736 419.83 270.736C464.618 270.736 496.471 232.396 541.446 232.396C586.421 232.396 648.592 292.645 691.566 292.645C734.54 292.645 790.379 199.656 790.379 199.656" stroke="#05C283" stroke-width="2.63305" stroke-linecap="round"/>
<path fill-rule="evenodd" clip-rule="evenodd" d="M91.0865 223.901C135.748 232.396 171.894 254.305 222.204 254.305C272.514 254.305 288.706 237.873 321.017 237.873C353.329 237.873 375.043 270.736 419.83 270.736C464.618 270.736 496.471 232.396 541.447 232.396C586.422 232.396 648.593 292.645 691.567 292.645C734.541 292.645 790.38 199.656 790.38 199.656V392.147H91.0865C91.0865 392.147 90.7885 233.108 91.0865 223.901Z" fill="url(#paint1_linear_1011_12350)"/>
<ellipse cx="542.857" cy="232.125" rx="7.14266" ry="6.56266" fill="#07E098"/>
<ellipse cx="420.963" cy="269.445" rx="7.14266" ry="6.56266" fill="#07E098"/>
<ellipse cx="322.772" cy="236.789" rx="7.14266" ry="6.56266" fill="#07E098"/>
<ellipse cx="222.889" cy="253.899" rx="7.14266" ry="6.56266" fill="#07E098"/>
<ellipse cx="92.5294" cy="224.352" rx="7.14266" ry="6.56266" fill="#07E098"/>
<path d="M91.0859 314.686C120.184 314.686 183.404 304.206 212.981 289.125C242.559 274.044 292.493 350.883 326.857 350.883C361.221 350.883 386.157 350.883 417.476 350.883C448.796 350.883 520.968 330.204 559.42 330.204C597.872 330.204 638.068 334.263 674.9 334.263C711.731 334.263 755.922 292.777 790.379 292.777" stroke="#007DD6" stroke-width="2.63305" stroke-linecap="round"/>
<path fill-rule="evenodd" clip-rule="evenodd" d="M91.1625 314.686C120.258 314.686 183.47 304.206 213.044 289.125C242.619 274.044 289.34 350.883 323.7 350.883C358.06 350.883 388.514 350.883 419.83 350.883C451.146 350.883 502.998 330.981 541.446 330.981C579.894 330.981 654.609 338.425 691.566 330.981C728.523 323.538 755.926 292.777 790.379 292.777C790.155 299.334 790.379 390.453 790.379 390.453L91.1625 389.54C91.1625 389.54 91.0093 322.209 91.1625 314.686Z" fill="url(#paint2_linear_1011_12350)"/>
<ellipse cx="543.615" cy="330.242" rx="7.14266" ry="6.56266" fill="#0095FF"/>
<ellipse cx="421.721" cy="350.453" rx="7.14266" ry="6.56266" fill="#0095FF"/>
<ellipse cx="321.838" cy="350.453" rx="7.14266" ry="6.56266" fill="#0095FF"/>
<ellipse cx="223.647" cy="288.25" rx="7.14266" ry="6.56266" fill="#0095FF"/>
<ellipse cx="93.2872" cy="313.133" rx="7.14266" ry="6.56266" fill="#0095FF"/>
</g>
<defs>
<filter id="filter0_d_1011_12350" x="39.6695" y="50.9278" width="802.661" height="498.661" filterUnits="userSpaceOnUse" color-interpolation-filters="sRGB">
<feFlood flood-opacity="0" result="BackgroundImageFix"/>
<feColorMatrix in="SourceAlpha" type="matrix" values="0 0 0 0 0 0 0 0 0 0 0 0 0 0 0 0 0 0 127 0" result="hardAlpha"/>
<feOffset dy="5.26609"/>
<feGaussianBlur stdDeviation="13.1652"/>
<feColorMatrix type="matrix" values="0 0 0 0 0.93198 0 0 0 0 0.93198 0 0 0 0 0.93198 0 0 0 0.501967 0"/>
<feBlend mode="normal" in2="BackgroundImageFix" result="effect1_dropShadow_1011_12350"/>
<feBlend mode="normal" in="SourceGraphic" in2="effect1_dropShadow_1011_12350" result="shape"/>
</filter>
<radialGradient id="paint0_radial_1011_12350" cx="0" cy="0" r="1" gradientUnits="userSpaceOnUse" gradientTransform="translate(294.708 596.124) rotate(44.9953) scale(886.717 886.717)">
<stop/>
<stop offset="1" stop-color="#297FB8"/>
</radialGradient>
<linearGradient id="paint1_linear_1011_12350" x1="90.9375" y1="199.656" x2="90.9375" y2="392.147" gradientUnits="userSpaceOnUse">
<stop stop-color="#00E096" stop-opacity="0.326568"/>
<stop offset="1" stop-color="white" stop-opacity="0.01"/>
</linearGradient>
<linearGradient id="paint2_linear_1011_12350" x1="91.0859" y1="287.164" x2="91.0859" y2="390.453" gradientUnits="userSpaceOnUse">
<stop stop-color="#009DFF" stop-opacity="0.31728"/>
<stop offset="1" stop-color="#0095FF" stop-opacity="0.01"/>
</linearGradient>
<clipPath id="clip0_1011_12350">
<rect x="0.210938" y="0.789062" width="588.789" height="588.789" rx="21.807" fill="white"/>
</clipPath>
</defs>
</svg>
